<?xml version="1.0" encoding="UTF-8" standalone="no"?>
<svg
   xmlns:dc="http://purl.org/dc/elements/1.1/"
   xmlns:cc="http://creativecommons.org/ns#"
   xmlns:rdf="http://www.w3.org/1999/02/22-rdf-syntax-ns#"
   xmlns:svg="http://www.w3.org/2000/svg"
   xmlns="http://www.w3.org/2000/svg"
   xmlns:xlink="http://www.w3.org/1999/xlink"
   xmlns:sodipodi="http://sodipodi.sourceforge.net/DTD/sodipodi-0.dtd"
   xmlns:inkscape="http://www.inkscape.org/namespaces/inkscape"
   version="1.1"
   id="Layer_1"
   x="0px"
   y="0px"
   width="290"
   height="290"
   viewBox="0 0 290 290"
   enable-background="new 0 0 360 360"
   xml:space="preserve"
   sodipodi:docname="terp.svg"
   inkscape:version="0.92.4 5da689c313, 2019-01-14"><sodipodi:namedview
   pagecolor="#ffffff"
   bordercolor="#666666"
   borderopacity="1"
   objecttolerance="10"
   gridtolerance="10"
   guidetolerance="10"
   inkscape:pageopacity="0"
   inkscape:pageshadow="2"
   inkscape:window-width="1503"
   inkscape:window-height="806"
   id="namedview64"
   showgrid="false"
   inkscape:zoom="0.8137931"
   inkscape:cx="-302.28814"
   inkscape:cy="145"
   inkscape:window-x="100"
   inkscape:window-y="162"
   inkscape:window-maximized="0"
   inkscape:current-layer="Layer_1" /><metadata
   id="metadata4432"><rdf:RDF><cc:Work
       rdf:about=""><dc:format>image/svg+xml</dc:format><dc:type
         rdf:resource="http://purl.org/dc/dcmitype/StillImage" /><dc:title /></cc:Work></rdf:RDF></metadata><defs
   id="defs4430"><inkscape:path-effect
     effect="envelope"
     id="path-effect875"
     is_visible="true"
     yy="true"
     xx="true"
     bendpath1="m 10.025796,109.69578 c 86.303202,-76.162138 174.643584,-112.7215052 270.178774,0"
     bendpath2="m 280.20457,109.69578 v 69.7884"
     bendpath3="m 10.025796,179.48418 c 93.995904,78.80042 184.546924,88.63834 270.178774,0"
     bendpath4="m 10.025796,109.69578 v 69.7884"
     bendpath1-nodetypes="cc"
     bendpath3-nodetypes="cc" /><inkscape:perspective
     sodipodi:type="inkscape:persp3d"
     inkscape:vp_x="-122.69562 : 118.88547 : 1"
     inkscape:vp_y="0 : 1205.6157 : 0"
     inkscape:vp_z="366.82784 : 118.88547 : 1"
     inkscape:persp3d-origin="122.06611 : 60.614043 : 1"
     id="perspective118" /><radialGradient
     gradientUnits="userSpaceOnUse"
     gradientTransform="matrix(0.2202,0,0,-0.2201,604.9996,323.4069)"
     r="232.7077"
     cy="884.27441"
     cx="-2282.1865"
     id="SVGID_5_"><stop
       id="stop4192"
       style="stop-color:#FFFFFF"
       offset="0" /><stop
       id="stop4194"
       style="stop-color:#8CD6F2"
       offset="0.4277" /><stop
       id="stop4196"
       style="stop-color:#86CCEB;stop-opacity:0.709"
       offset="0.5942" /><stop
       id="stop4198"
       style="stop-color:#7AB6DC;stop-opacity:0"
       offset="1" /></radialGradient><radialGradient
     xlink:href="#SVGID_5_"
     id="radialGradient3715"
     gradientUnits="userSpaceOnUse"
     gradientTransform="matrix(0.2202,0,0,-0.2201,572.47981,290.9523)"
     cx="-2282.1865"
     cy="884.27441"
     r="232.7077" /><radialGradient
     gradientUnits="userSpaceOnUse"
     gradientTransform="matrix(0.9323,0.3618,-0.3618,0.9323,106.0605,-539.3926)"
     r="139.521"
     cy="640.79492"
     cx="330.48831"
     id="SVGID_4_"><stop
       id="stop4164"
       style="stop-color:#FFFFFF"
       offset="0.638" /><stop
       id="stop4166"
       style="stop-color:#FDFDFD"
       offset="0.7638" /><stop
       id="stop4168"
       style="stop-color:#F6F6F6"
       offset="0.8091" /><stop
       id="stop4170"
       style="stop-color:#EBEBEB"
       offset="0.8414" /><stop
       id="stop4172"
       style="stop-color:#DADADA"
       offset="0.8675" /><stop
       id="stop4174"
       style="stop-color:#C4C4C4"
       offset="0.8898" /><stop
       id="stop4176"
       style="stop-color:#A8A8A8"
       offset="0.9097" /><stop
       id="stop4178"
       style="stop-color:#888888"
       offset="0.9276" /><stop
       id="stop4180"
       style="stop-color:#626262"
       offset="0.944" /><stop
       id="stop4182"
       style="stop-color:#373737"
       offset="0.9594" /><stop
       id="stop4184"
       style="stop-color:#090909"
       offset="0.973" /><stop
       id="stop4186"
       style="stop-color:#000000"
       offset="0.9755" /></radialGradient><radialGradient
     xlink:href="#SVGID_4_"
     id="radialGradient3733"
     gradientUnits="userSpaceOnUse"
     gradientTransform="matrix(0.9323,0.3618,-0.3618,0.9323,73.540701,-571.8472)"
     cx="330.48831"
     cy="640.79492"
     r="139.521" /><linearGradient
     gradientTransform="matrix(1.011,0.035,0.0335,-0.9677,1064.9712,-381.7715)"
     y2="-525.04883"
     x2="-936.83099"
     y1="-674.81543"
     x1="-828.80957"
     gradientUnits="userSpaceOnUse"
     id="SVGID_3_"><stop
       id="stop4151"
       style="stop-color:#144CA2"
       offset="0" /><stop
       id="stop4153"
       style="stop-color:#8CD6F2"
       offset="1" /></linearGradient><linearGradient
     xlink:href="#SVGID_3_"
     id="linearGradient3742"
     gradientUnits="userSpaceOnUse"
     gradientTransform="matrix(1.011,0.035,0.0335,-0.9677,1032.4514,-414.2261)"
     x1="-828.80957"
     y1="-674.81543"
     x2="-936.83099"
     y2="-525.04883" /><linearGradient
     gradientTransform="matrix(1.0084,0.0596,-0.059,0.9983,-12.1665,-88.3223)"
     y2="321.63629"
     x2="326.5795"
     y1="201.7578"
     x1="127.5649"
     gradientUnits="userSpaceOnUse"
     id="SVGID_2_"><stop
       id="stop4128"
       style="stop-color:#FFFFFF"
       offset="0" /><stop
       id="stop4130"
       style="stop-color:#FCFCFC"
       offset="0.2317" /><stop
       id="stop4132"
       style="stop-color:#F3F3F3"
       offset="0.4013" /><stop
       id="stop4134"
       style="stop-color:#E3E3E3"
       offset="0.5511" /><stop
       id="stop4136"
       style="stop-color:#CCCCCC"
       offset="0.6894" /><stop
       id="stop4138"
       style="stop-color:#AFAFAF"
       offset="0.82" /><stop
       id="stop4140"
       style="stop-color:#8C8C8C"
       offset="0.9429" /><stop
       id="stop4142"
       style="stop-color:#797979"
       offset="1" /></linearGradient><linearGradient
     xlink:href="#SVGID_2_"
     id="linearGradient3757"
     gradientUnits="userSpaceOnUse"
     gradientTransform="matrix(1.0084,0.0596,-0.059,0.9983,-44.686301,-120.7769)"
     x1="127.5649"
     y1="201.7578"
     x2="326.5795"
     y2="321.63629" /><filter
     style="color-interpolation-filters:sRGB;"
     inkscape:label="Drop Shadow"
     id="filter104"><feFlood
       flood-opacity="0.498039"
       flood-color="rgb(0,0,0)"
       result="flood"
       id="feFlood94" /><feComposite
       in="flood"
       in2="SourceGraphic"
       operator="in"
       result="composite1"
       id="feComposite96" /><feGaussianBlur
       in="composite1"
       stdDeviation="3"
       result="blur"
       id="feGaussianBlur98" /><feOffset
       dx="6"
       dy="6"
       result="offset"
       id="feOffset100" /><feComposite
       in="SourceGraphic"
       in2="offset"
       operator="over"
       result="fbSourceGraphic"
       id="feComposite102" /><feColorMatrix
       result="fbSourceGraphicAlpha"
       in="fbSourceGraphic"
       values="0 0 0 -1 0 0 0 0 -1 0 0 0 0 -1 0 0 0 0 1 0"
       id="feColorMatrix106" /><feFlood
       id="feFlood108"
       flood-opacity="0.498039"
       flood-color="rgb(0,0,0)"
       result="flood"
       in="fbSourceGraphic" /><feComposite
       in2="fbSourceGraphic"
       id="feComposite110"
       in="flood"
       operator="in"
       result="composite1" /><feGaussianBlur
       id="feGaussianBlur112"
       in="composite1"
       stdDeviation="3"
       result="blur" /><feOffset
       id="feOffset114"
       dx="6"
       dy="6"
       result="offset" /><feComposite
       in2="offset"
       id="feComposite116"
       in="fbSourceGraphic"
       operator="over"
       result="composite2" /></filter></defs><ellipse
   style="fill:#000000;fill-opacity:1;stroke:none;stroke-width:4.35833359;stroke-miterlimit:4;stroke-dasharray:none"
   id="path150"
   cx="143.77119"
   cy="144.3856"
   rx="141.14699"
   ry="138.07495" /><g
   aria-label="TERP"
   style="font-style:normal;font-weight:normal;font-size:95.73116302px;line-height:1.25;font-family:sans-serif;letter-spacing:0px;word-spacing:0px;fill:#00ff00;fill-opacity:1;stroke:none;stroke-width:2.39327908;filter:url(#filter104)"
   id="text70"
   inkscape:path-effect="#path-effect875"><path
     d="M 9.9443341,109.59089 C 29.94332,101.28591 49.250736,85.475214 70.271762,70.671878 c 4.393853,14.927371 6.37909,27.125023 7.37551,36.785232 -7.524373,2.45612 -15.104436,4.93331 -22.722415,7.16918 0.894435,9.41201 2.43495,62.67889 -6.52904,85.63826 -5.648978,-3.61102 -11.243066,-7.12199 -16.797229,-10.32958 5.410048,-11.22855 5.457981,-67.28212 5.287784,-70.5962 -7.866307,1.75597 -15.889237,3.10094 -24.201654,3.8168 0.443781,-4.48171 0.224189,-9.12713 -2.7403839,-13.56468 z"
     style="font-style:normal;font-variant:normal;font-weight:bold;font-stretch:normal;font-family:sans-serif;-inkscape-font-specification:'sans-serif Bold';fill:#00ff00;fill-opacity:1;stroke-width:2.39327908"
     id="path866"
     inkscape:original-d="m 10.025796,109.69578 h 64.319376 v 13.60243 H 51.207024 v 56.18597 H 33.210688 V 123.29821 H 10.025796 Z" /><path
     d="m 79.509039,64.332818 c -7.93e-4,5.27e-4 0.464915,-0.308598 0.464121,-0.30807 9.08889,-6.021345 18.450958,-11.557414 28.29134,-16.005499 7.68761,-3.474985 15.57304,-6.230706 23.65144,-8.01246 1.42569,21.831801 2.07867,39.353093 2.40901,52.958637 -6.93041,0.84015 -13.82161,2.150472 -20.73836,3.795532 -3.09576,0.737017 -6.18123,1.541263 -9.26739,2.399212 0.87753,11.2877 1.13897,21.08785 1.2524,28.92589 3.0482,-0.32313 6.07823,-0.62534 9.10341,-0.90059 6.17182,-0.559 12.25674,-1.0205 18.32741,-1.33826 0.0248,7.57857 0.0164,19.85165 -5.6e-4,26.77305 -6.04848,-0.0708 -12.08704,-0.18398 -18.25711,-0.33857 -3.01987,-0.0741 -6.04494,-0.15231 -9.09306,-0.23435 -0.0506,8.7412 -0.20057,20.2025 -1.19453,33.21271 3.08191,0.66463 6.1583,1.2866 9.23925,1.85743 7.22249,1.34229 14.36999,2.35959 21.5446,2.96373 -0.3282,12.91774 -0.96587,29.49093 -2.34182,50.21227 -8.25083,-1.37615 -16.34551,-3.66201 -24.31486,-6.66011 -9.732546,-3.66131 -19.08675,-8.31009 -28.197114,-13.49413 -6.15e-4,-3.5e-4 -0.464312,-0.26476 -0.464927,-0.26511 10.763397,-41.7262 11.193757,-110.61088 -0.41325,-155.541312 z"
     style="font-style:normal;font-variant:normal;font-weight:bold;font-stretch:normal;font-family:sans-serif;-inkscape-font-specification:'sans-serif Bold';fill:#00ff00;fill-opacity:1;stroke-width:2.39327908"
     id="path868"
     inkscape:original-d="m 83.647176,109.69578 h 48.566734 v 13.60243 h -30.5704 v 12.99476 h 28.7474 v 13.60242 h -28.7474 v 15.98636 h 31.59877 v 13.60243 H 83.647176 Z" /><path
     d="m 173.89209,134.84776 c 3.47007,0.13522 6.00154,-1.07269 7.55544,-3.64907 1.60584,-2.61218 2.46163,-6.91585 2.81054,-13.9567 0.3477,-7.01614 0.0279,-13.13883 -1.24064,-17.247307 -1.24438,-4.119878 -3.62762,-6.848917 -7.28582,-7.534042 -1.52749,-0.286075 -3.05708,-0.546644 -4.58949,-0.780101 -0.91178,-0.140188 -1.82493,-0.270956 -2.73956,-0.39223 -0.98182,17.9301 -1.34113,32.23863 -1.48159,43.32999 0.86661,0.0238 1.73272,0.0496 2.59876,0.0774 1.45576,0.0443 2.91277,0.0952 4.37236,0.15205 z m -6.9882,24.04115 c 0.18202,16.10109 0.83388,42.21873 3.90555,80.84034 -6.67234,1.33075 -13.39971,2.03067 -20.1706,2.04513 -0.0536,-109.47566 -0.29336,-87.97079 0.75815,-204.036595 8.09992,-0.08354 16.14636,0.914569 24.05507,2.976458 2.52543,0.658455 5.02816,1.422703 7.50762,2.28487 10.49361,3.648882 15.84091,15.125095 17.95584,28.394723 0.91566,5.668939 1.29432,11.900498 1.37945,18.167659 0.11187,8.125376 -0.26801,17.154365 -0.87077,25.030605 -0.59988,7.83864 -1.39638,13.1788 -2.85876,17.70694 -0.3789,1.175 -0.7975,2.27262 -1.25743,3.30287 -2.14248,4.8658 -5.33831,8.51723 -9.49103,10.98037 2.28084,0.98602 4.34464,3.20255 6.1765,6.60765 1.49188,2.68632 3.0169,6.48103 4.71218,11.79105 0.43776,1.36945 0.8868,2.83806 1.36017,4.44241 2.08576,7.10784 4.88803,16.39942 8.33021,26.07101 2.54807,7.14766 5.74222,15.3696 9.83751,24.35719 -1.3339,0.83104 -2.67708,1.64949 -4.0308,2.45355 -2.29163,1.36122 -4.61008,2.67424 -6.95891,3.93222 -2.78191,1.48996 -5.59926,2.89878 -8.45586,4.2155 -7.13739,-21.12825 -12.1309,-40.82313 -15.17518,-52.86961 -2.04586,-8.08892 -3.76238,-12.81002 -5.47133,-15.32764 -1.6632,-2.49438 -3.85596,-3.66627 -6.54755,-3.55 -0.69711,0.0301 -1.39367,0.0593 -2.08987,0.0875 -0.86647,0.0338 -1.73311,0.0657 -2.60016,0.0958 z"
     style="font-style:normal;font-variant:normal;font-weight:bold;font-stretch:normal;font-family:sans-serif;-inkscape-font-specification:'sans-serif Bold';fill:#00ff00;fill-opacity:1;stroke-width:2.39327908"
     id="path870"
     inkscape:original-d="m 174.61047,140.64014 q 5.65599,0 8.08666,-2.10347 2.47742,-2.10347 2.47742,-6.91807 0,-4.76787 -2.47742,-6.82459 -2.43067,-2.05672 -8.08666,-2.05672 h -7.57249 v 17.90285 z m -7.57249,12.43383 v 26.41021 h -17.99633 v -69.7884 h 27.48531 q 13.7894,0 20.19329,4.62763 6.45064,4.62763 6.45064,14.63079 0,6.91807 -3.36555,11.35873 -3.31881,4.44065 -10.0499,6.54412 3.69275,0.84139 6.59086,3.83299 2.94486,2.94485 5.93646,8.97479 l 9.76944,19.81935 h -19.16493 l -8.50736,-17.34193 q -2.57091,-5.2353 -5.2353,-7.15179 -2.61765,-1.91649 -7.01156,-1.91649 z" /><path
     d="m 230.19985,71.36677 c 4.39864,3.566811 8.65547,7.18031 12.84709,10.74642 4.59383,3.908265 9.10997,7.756046 13.56697,11.355839 7.41452,5.988505 11.15249,14.117581 14.01476,19.841471 2.56955,5.05214 6.94878,12.72334 8.16937,18.9941 1.47123,7.55844 -1.1888,12.79814 -7.16548,16.94796 -5.54804,3.8473 -13.76353,6.40545 -22.68342,7.03263 -4.10524,0.28865 -8.13154,0.61812 -12.09867,0.9727 -0.0656,9.77081 0.006,24.53408 8.28887,44.05829 -1.51621,1.09373 -1.8983,1.37013 -3.41451,2.46386 -4.3241,3.1181 -8.68774,6.24465 -13.18464,9.31891 -12.6705,-38.05296 -13.01746,-100.53626 1.65966,-141.73218 z m 7.86336,41.57678 c -1.4501,10.31326 -1.07092,21.24119 -1.05306,28.01975 3.37253,0.15333 6.79494,0.29731 10.27478,0.42821 3.64317,0.13705 6.56303,-0.71644 8.51747,-2.45183 1.99371,-1.80612 2.79946,-4.30643 2.54892,-7.88785 -0.24724,-3.53428 -1.38107,-6.68502 -3.18515,-9.27641 -1.81929,-2.61324 -4.2943,-4.64535 -7.63501,-5.68396 -3.18416,-0.98994 -6.3364,-2.04727 -9.46795,-3.14791 z"
     style="font-style:normal;font-variant:normal;font-weight:bold;font-stretch:normal;font-family:sans-serif;-inkscape-font-specification:'sans-serif Bold';fill:#00ff00;fill-opacity:1;stroke-width:2.39327908"
     id="path872"
     inkscape:original-d="m 222.75652,109.69578 h 29.86924 q 13.32197,0 20.42702,5.93646 7.15179,5.88971 7.15179,16.82774 0,10.98478 -7.15179,16.92123 -7.10505,5.88971 -20.42702,5.88971 h -11.8729 v 24.21326 h -17.99634 z m 17.99634,13.04151 v 19.49213 h 9.95641 q 5.2353,0 8.08667,-2.52416 2.85137,-2.5709 2.85137,-7.24528 0,-4.67437 -2.85137,-7.19853 -2.85137,-2.52416 -8.08667,-2.52416 z" /></g>

</svg>